<?xml version="1.0" standalone="no"?>
<!DOCTYPE svg PUBLIC "-//W3C//DTD SVG 20010904//EN"
 "http://www.w3.org/TR/2001/REC-SVG-20010904/DTD/svg10.dtd">
<svg version="1.0" xmlns="http://www.w3.org/2000/svg"
 width="123.000000pt" height="100.000000pt" viewBox="0 0 123.000000 100.000000"
 preserveAspectRatio="xMidYMid meet">

<g transform="translate(0.000000,100.000000) scale(0.100000,-0.100000)"
fill="#000000" stroke="none">
<path d="M540 975 c-8 -2 -32 -6 -53 -10 -21 -3 -35 -10 -32 -15 3 -6 0 -7 -8
-4 -8 3 -18 1 -22 -5 -3 -6 -13 -11 -21 -11 -29 0 -212 -130 -257 -183 -93
-107 -127 -151 -119 -158 4 -3 42 -25 84 -47 222 -119 417 -278 538 -439 30
-40 58 -73 61 -73 18 0 41 126 46 245 5 120 8 135 35 187 51 97 53 98 230 107
85 5 163 13 173 18 16 9 14 15 -26 58 -24 25 -61 56 -84 66 -25 13 -33 14 -21
5 11 -9 16 -19 13 -23 -4 -4 -13 -1 -19 5 -15 15 -58 16 -58 2 0 -5 -9 -10
-19 -10 -11 0 -23 -4 -26 -10 -3 -5 -30 -9 -58 -9 -29 1 -41 4 -27 6 14 2 39
10 55 18 17 7 39 15 50 17 38 7 29 36 -18 59 -25 12 -50 32 -56 45 -11 24 -74
68 -179 123 -59 30 -140 47 -182 36z"/>
</g>
</svg>
